<svg width="58" height="56" viewBox="0 0 58 56" fill="none" xmlns="http://www.w3.org/2000/svg">
<g id="undraw_no_data_re_kwbl 1" clip-path="url(#clip0_343_2146)">
<path id="Vector" d="M36.4373 13.0341H21.1753C20.8275 13.0346 20.4941 13.1729 20.2481 13.4188C20.0022 13.6648 19.8639 13.9982 19.8634 14.346V48.266L19.6885 48.3194L15.9445 49.4659C15.7671 49.52 15.5754 49.5015 15.4116 49.4145C15.2478 49.3274 15.1253 49.1789 15.0708 49.0015L3.93409 12.624C3.8799 12.4465 3.89837 12.2548 3.98545 12.091C4.07253 11.9272 4.2211 11.8046 4.39849 11.7503L10.168 9.98365L26.8941 4.86394L32.6636 3.09732C32.7514 3.0703 32.8437 3.06085 32.9351 3.06953C33.0266 3.07821 33.1154 3.10484 33.1966 3.14789C33.2777 3.19094 33.3496 3.24958 33.4081 3.32043C33.4665 3.39129 33.5104 3.47299 33.5373 3.56084L36.384 12.8592L36.4373 13.0341Z" fill="#F2F2F2"/>
<path id="Vector_2" d="M39.7682 12.8595L36.3373 1.6528C36.2802 1.46608 36.1869 1.29243 36.0627 1.14178C35.9385 0.991137 35.7858 0.866444 35.6134 0.77483C35.4409 0.683215 35.2522 0.626474 35.0578 0.60785C34.8634 0.589226 34.6673 0.609085 34.4806 0.66629L26.369 3.14918L9.64384 8.26977L1.53224 10.7535C1.15542 10.8692 0.8399 11.1297 0.654942 11.4778C0.469983 11.8259 0.430696 12.2332 0.545704 12.6102L12.2719 50.9101C12.3653 51.2145 12.5538 51.4809 12.8098 51.6702C13.0657 51.8596 13.3756 51.9619 13.694 51.9622C13.8413 51.9623 13.9878 51.9402 14.1286 51.8966L19.6891 50.1947L19.864 50.1405V49.9577L19.6891 50.011L14.077 51.7296C13.7444 51.831 13.3851 51.7963 13.0781 51.6332C12.771 51.47 12.5411 51.1917 12.4389 50.8594L0.713656 12.5586C0.663027 12.394 0.645381 12.2209 0.661729 12.0494C0.678077 11.8779 0.728096 11.7112 0.808925 11.5591C0.889754 11.4069 0.999806 11.2722 1.13277 11.1626C1.26574 11.0531 1.41902 10.9708 1.58382 10.9206L9.69542 8.43681L26.4206 3.3171L34.5322 0.833334C34.6572 0.795185 34.7872 0.775734 34.9179 0.775612C35.1984 0.776242 35.4713 0.866668 35.6967 1.03365C35.922 1.20062 36.088 1.43538 36.1703 1.70353L39.5855 12.8595L39.6397 13.0344H39.8216L39.7682 12.8595Z" fill="#3F3D56"/>
<path id="Vector_3" d="M11.2093 11.7788C11.0407 11.7787 10.8766 11.7245 10.7411 11.6243C10.6055 11.5241 10.5057 11.3831 10.4561 11.222L9.32967 7.54253C9.2994 7.4437 9.28889 7.33987 9.29876 7.23697C9.30862 7.13407 9.33866 7.03413 9.38715 6.94284C9.43564 6.85156 9.50165 6.77072 9.58139 6.70494C9.66113 6.63917 9.75305 6.58975 9.85189 6.5595L25.2389 1.84876C25.4385 1.78785 25.6541 1.80862 25.8385 1.90652C26.0228 2.00442 26.1607 2.17144 26.222 2.37094L27.3485 6.05043C27.4093 6.25004 27.3885 6.46565 27.2907 6.64994C27.1928 6.83424 27.0258 6.97218 26.8263 7.03351L11.4392 11.7443C11.3647 11.7671 11.2872 11.7788 11.2093 11.7788Z" fill="#2B3F6C"/>
<path id="Vector_4" d="M17.1102 4.53147C18.0762 4.53147 18.8593 3.74835 18.8593 2.78234C18.8593 1.81632 18.0762 1.0332 17.1102 1.0332C16.1442 1.0332 15.3611 1.81632 15.3611 2.78234C15.3611 3.74835 16.1442 4.53147 17.1102 4.53147Z" fill="#2B3F6C"/>
<path id="Vector_5" d="M17.11 3.89001C17.7218 3.89001 18.2177 3.39412 18.2177 2.78241C18.2177 2.1707 17.7218 1.6748 17.11 1.6748C16.4983 1.6748 16.0024 2.1707 16.0024 2.78241C16.0024 3.39412 16.4983 3.89001 17.11 3.89001Z" fill="white"/>
<path id="Vector_6" d="M53.1846 51.5151H23.6242C23.4272 51.5149 23.2382 51.4365 23.0988 51.2971C22.9595 51.1577 22.8811 50.9688 22.8809 50.7717V15.3518C22.8811 15.1547 22.9595 14.9657 23.0988 14.8264C23.2382 14.687 23.4272 14.6086 23.6242 14.6084H53.1846C53.3817 14.6086 53.5706 14.687 53.71 14.8264C53.8493 14.9657 53.9277 15.1547 53.928 15.3518V50.7717C53.9277 50.9688 53.8493 51.1577 53.71 51.2971C53.5706 51.4365 53.3817 51.5148 53.1846 51.5151Z" fill="#E6E6E6"/>
<path id="Vector_7" d="M39.5851 12.8594H21.1755C20.7813 12.8599 20.4035 13.0168 20.1248 13.2955C19.8461 13.5742 19.6893 13.952 19.6887 14.3461V50.0109L19.8636 49.9576V14.3461C19.8641 13.9983 20.0024 13.6649 20.2483 13.419C20.4943 13.1731 20.8277 13.0347 21.1755 13.0343H39.6393L39.5851 12.8594ZM55.6334 12.8594H21.1755C20.7813 12.8599 20.4035 13.0168 20.1248 13.2955C19.8461 13.5742 19.6893 13.952 19.6887 14.3461V54.4013C19.6893 54.7954 19.8461 55.1732 20.1248 55.4519C20.4035 55.7306 20.7813 55.8875 21.1755 55.888H55.6334C56.0275 55.8875 56.4054 55.7306 56.6841 55.4519C56.9628 55.1732 57.1196 54.7954 57.1201 54.4013V14.3461C57.1196 13.952 56.9628 13.5742 56.6841 13.2955C56.4054 13.0168 56.0275 12.8599 55.6334 12.8594ZM56.9452 54.4013C56.9448 54.7491 56.8065 55.0825 56.5605 55.3284C56.3146 55.5743 55.9812 55.7127 55.6334 55.7131H21.1755C20.8277 55.7127 20.4943 55.5743 20.2483 55.3284C20.0024 55.0825 19.8641 54.7491 19.8636 54.4013V14.3461C19.8641 13.9983 20.0024 13.6649 20.2483 13.419C20.4943 13.1731 20.8277 13.0347 21.1755 13.0343H55.6334C55.9812 13.0347 56.3146 13.1731 56.5605 13.419C56.8065 13.6649 56.9448 13.9983 56.9452 14.3461V54.4013Z" fill="#3F3D56"/>
<path id="Vector_8" d="M46.4504 16.707H30.3584C30.1497 16.7067 29.9496 16.6237 29.8021 16.4762C29.6545 16.3286 29.5715 16.1285 29.5713 15.9199V12.0718C29.5715 11.8631 29.6545 11.663 29.8021 11.5155C29.9497 11.3679 30.1497 11.2849 30.3584 11.2847H46.4504C46.6591 11.2849 46.8592 11.3679 47.0067 11.5155C47.1543 11.663 47.2373 11.8631 47.2375 12.0718V15.9199C47.2373 16.1285 47.1543 16.3286 47.0067 16.4762C46.8592 16.6237 46.6591 16.7067 46.4504 16.707Z" fill="#2B3F6C"/>
<path id="Vector_9" d="M38.4044 11.5476C39.3704 11.5476 40.1535 10.7645 40.1535 9.79845C40.1535 8.83243 39.3704 8.04932 38.4044 8.04932C37.4384 8.04932 36.6553 8.83243 36.6553 9.79845C36.6553 10.7645 37.4384 11.5476 38.4044 11.5476Z" fill="#2B3F6C"/>
<path id="Vector_10" d="M38.4043 10.8637C38.9926 10.8637 39.4696 10.3867 39.4696 9.7983C39.4696 9.2099 38.9926 8.73291 38.4043 8.73291C37.8159 8.73291 37.3389 9.2099 37.3389 9.7983C37.3389 10.3867 37.8159 10.8637 38.4043 10.8637Z" fill="white"/>
</g>
<defs>
<clipPath id="clip0_343_2146">
<rect width="56.6401" height="55.2878" fill="white" transform="translate(0.47998 0.600098)"/>
</clipPath>
</defs>
</svg>
