<svg width="18" height="18" viewBox="0 0 18 18" fill="none" xmlns="http://www.w3.org/2000/svg">
<g id="&#240;&#159;&#166;&#134; icon &#34;eye off&#34;">
<path id="Vector" d="M13.32 13.32C12.0768 14.2676 10.563 14.7926 9 14.8182C3.90909 14.8182 1 8.99999 1 8.99999C1.90465 7.3141 3.15937 5.84116 4.68 4.67999M7.47273 3.35636C7.97333 3.23918 8.48586 3.1806 9 3.18181C14.0909 3.18181 17 8.99999 17 8.99999C16.5585 9.82589 16.032 10.6034 15.4291 11.32M10.5418 10.5418C10.3421 10.7562 10.1012 10.9281 9.83357 11.0474C9.56593 11.1666 9.27702 11.2307 8.98407 11.2359C8.69111 11.2411 8.40012 11.1872 8.12844 11.0774C7.85677 10.9677 7.60998 10.8044 7.4028 10.5972C7.19562 10.39 7.03229 10.1432 6.92255 9.87155C6.81282 9.59987 6.75893 9.30888 6.7641 9.01593C6.76927 8.72297 6.83339 8.43406 6.95264 8.16643C7.07189 7.89879 7.24382 7.65792 7.45818 7.45818" stroke="#2B3F6C" stroke-linecap="round" stroke-linejoin="round"/>
<path id="Vector_2" d="M1 1L17 17" stroke="#2B3F6C" stroke-linecap="round" stroke-linejoin="round"/>
</g>
</svg>
