<svg width="17" height="16" viewBox="0 0 17 16" fill="none" xmlns="http://www.w3.org/2000/svg">
<g id="image">
<path id="Vector" d="M13.0088 2.18799H3.93942C3.22387 2.18799 2.6438 2.76806 2.6438 3.48361V12.553C2.6438 13.2685 3.22387 13.8486 3.93942 13.8486H13.0088C13.7243 13.8486 14.3044 13.2685 14.3044 12.553V3.48361C14.3044 2.76806 13.7243 2.18799 13.0088 2.18799Z" stroke="black" stroke-width="1.11053" stroke-linecap="round" stroke-linejoin="round"/>
<path id="Vector_2" d="M6.20707 6.72322C6.74373 6.72322 7.17879 6.28817 7.17879 5.7515C7.17879 5.21484 6.74373 4.77979 6.20707 4.77979C5.6704 4.77979 5.23535 5.21484 5.23535 5.7515C5.23535 6.28817 5.6704 6.72322 6.20707 6.72322Z" stroke="black" stroke-width="1.11053" stroke-linecap="round" stroke-linejoin="round"/>
<path id="Vector_3" d="M14.3042 9.9622L11.0651 6.72314L3.93921 13.8491" stroke="black" stroke-width="1.11053" stroke-linecap="round" stroke-linejoin="round"/>
</g>
</svg>
