<svg width="22" height="22" viewBox="0 0 22 22" fill="none" xmlns="http://www.w3.org/2000/svg">
<g id="Edit 2">
<path id="Subtract" fill-rule="evenodd" clip-rule="evenodd" d="M0 5.75C0 2.57436 2.57436 0 5.75 0H15.75C18.9256 0 21.5 2.57436 21.5 5.75V15.75C21.5 18.9256 18.9256 21.5 15.75 21.5H5.75C2.57436 21.5 0 18.9256 0 15.75V5.75ZM12.4135 5.83037C12.8427 5.40053 13.5389 5.40026 13.9684 5.82978L15.6777 7.5391C16.1035 7.96495 16.108 8.65435 15.6876 9.08564L14.5468 10.2561L11.2682 6.97746L12.4135 5.83037ZM10.6854 7.56118L13.971 10.8469L9.87533 15.0491C9.56494 15.3675 9.13923 15.5471 8.69471 15.5471L6.82455 15.547C6.35556 15.547 5.98102 15.156 6.00074 14.6871L6.08062 12.7882C6.09799 12.3751 6.26969 11.9835 6.56174 11.691L10.6854 7.56118Z" fill="#2B3F6C"/>
</g>
</svg>
