<svg width="20" height="22" viewBox="0 0 20 22" fill="none" xmlns="http://www.w3.org/2000/svg">
<path id="Exclude" fill-rule="evenodd" clip-rule="evenodd" d="M18.1897 11C18.8603 10.0161 19.2386 8.90152 19.2386 7.72068C19.2386 3.73625 14.9319 0.506226 9.61928 0.506226C4.3067 0.506226 0 3.73625 0 7.72068C0 8.90152 0.378259 10.0161 1.04886 11C0.378259 11.9838 0 13.0984 0 14.2792C0 18.2637 4.3067 21.4937 9.61928 21.4937C14.9319 21.4937 19.2386 18.2637 19.2386 14.2792C19.2386 13.0984 18.8603 11.9838 18.1897 11ZM18.1897 11C16.5975 8.664 13.3574 7.06479 9.61928 7.06479C5.88114 7.06479 2.64103 8.664 1.04886 11C2.64103 13.3359 5.88114 14.9351 9.61928 14.9351C13.3574 14.9351 16.5975 13.3359 18.1897 11Z" fill="#FF6641"/>
</svg>
