<svg width="20" height="20" viewBox="0 0 20 20" fill="none" xmlns="http://www.w3.org/2000/svg">
<g id="Logout">
<path id="Exclude" fill-rule="evenodd" clip-rule="evenodd" d="M4 0H9C11.2091 0 13 1.79086 13 4V9.25L6 9.25C5.58579 9.25 5.25 9.58579 5.25 10C5.25 10.4142 5.58579 10.75 6 10.75L13 10.75V16C13 18.2091 11.2091 20 9 20H4C1.79086 20 0 18.2091 0 16V14V6V4C0 1.79086 1.79086 0 4 0ZM13 10.75H17.1893L15.4697 12.4697C15.1768 12.7626 15.1768 13.2374 15.4697 13.5303C15.7626 13.8232 16.2374 13.8232 16.5303 13.5303L18.8232 11.2374C19.5066 10.554 19.5066 9.44598 18.8232 8.76256L16.5303 6.46967C16.2374 6.17678 15.7626 6.17678 15.4697 6.46967C15.1768 6.76256 15.1768 7.23744 15.4697 7.53033L17.1893 9.25H13V10.75Z" fill="#2B3F6C"/>
</g>
</svg>
