<svg width="12" height="16" viewBox="0 0 12 16" fill="none" xmlns="http://www.w3.org/2000/svg">
<g id="Shield">
<path id="Subtract" fill-rule="evenodd" clip-rule="evenodd" d="M0.385768 3.61902C0.147669 3.75129 0 4.00226 0 4.27464V7.75364C0 10.4774 1.47669 12.987 3.85768 14.3098L5.63577 15.2976C5.86228 15.4235 6.13772 15.4235 6.36423 15.2976L8.14232 14.3098C10.5233 12.987 12 10.4774 12 7.75364V4.27464C12 4.00226 11.8523 3.7513 11.6142 3.61902L6.36423 0.702351C6.13772 0.576508 5.86228 0.576508 5.63577 0.702351L0.385768 3.61902ZM3.72725 8.39775L5.22725 9.89775C5.44692 10.1174 5.80308 10.1174 6.02275 9.89775L9.02275 6.89775C9.24242 6.67808 9.24242 6.32192 9.02275 6.10225C8.80308 5.88258 8.44692 5.88258 8.22725 6.10225L5.625 8.7045L4.52275 7.60225C4.30308 7.38258 3.94692 7.38258 3.72725 7.60225C3.50758 7.82192 3.50758 8.17808 3.72725 8.39775Z" fill="#3DB107"/>
</g>
</svg>
