<svg width="24" height="24" viewBox="0 0 24 24" fill="none" xmlns="http://www.w3.org/2000/svg">
<path fill-rule="evenodd" clip-rule="evenodd" d="M5 2C3.34315 2 2 3.34315 2 5V19C2 20.6569 3.34315 22 5 22H9C10.6569 22 12 20.6569 12 19V5C12 3.34315 10.6569 2 9 2H5ZM7 19C7.55228 19 8 18.5523 8 18C8 17.4477 7.55228 17 7 17C6.44772 17 6 17.4477 6 18C6 18.5523 6.44772 19 7 19Z" fill="#2B3F6C" fill-opacity="0.7"/>
<path d="M13.5 15.6597C13.5 15.9965 13.8908 16.1826 14.1522 15.9702L20.0347 11.1918C21.2332 10.0251 21.2461 8.10359 20.0634 6.92086L17.2219 4.07936C16.4882 3.34566 15.4672 3.07049 14.5181 3.25743C13.8451 3.39001 13.5 4.0786 13.5 4.76463V15.6597Z" fill="#2B3F6C" fill-opacity="0.7"/>
<path d="M13.8695 18.1321C13.6357 18.322 13.5 18.6072 13.5 18.9083V20.9999C13.5 21.5522 13.9477 21.9999 14.5 21.9999H19C20.6569 21.9999 22 20.6568 22 18.9999V14.2025C22 13.4248 21.597 12.7413 20.9884 12.3494L13.8695 18.1321Z" fill="#2B3F6C" fill-opacity="0.7"/>
</svg>
