<svg width="21" height="20" viewBox="0 0 21 20" fill="none" xmlns="http://www.w3.org/2000/svg">
<g id="Wallet">
<g id="Group 238">
<path id="Subtract" fill-rule="evenodd" clip-rule="evenodd" d="M5.99988 4C3.23845 4 0.999878 6.23858 0.999878 9V15C0.999878 17.7614 3.23845 20 5.99988 20H15.9999C18.6775 20 20.8635 17.8953 20.9937 15.25H16.4999C14.705 15.25 13.2499 13.7949 13.2499 12C13.2499 10.2051 14.705 8.75 16.4999 8.75H20.9937C20.8635 6.10472 18.6775 4 15.9999 4H5.99988ZM16.4999 10.25H20.9999V13.75H16.4999C15.5334 13.75 14.7499 12.9665 14.7499 12C14.7499 11.0335 15.5334 10.25 16.4999 10.25ZM4.99988 14.75C4.58566 14.75 4.24988 15.0858 4.24988 15.5C4.24988 15.9142 4.58566 16.25 4.99988 16.25H10.9999C11.4141 16.25 11.7499 15.9142 11.7499 15.5C11.7499 15.0858 11.4141 14.75 10.9999 14.75H4.99988ZM16.4999 11.25C16.0857 11.25 15.7499 11.5858 15.7499 12C15.7499 12.4142 16.0857 12.75 16.4999 12.75H16.6999C17.1141 12.75 17.4499 12.4142 17.4499 12C17.4499 11.5858 17.1141 11.25 16.6999 11.25H16.4999Z" fill="#2B3F6C"/>
<path id="Subtract_2" d="M18.4878 2.99302C17.7667 1.00165 15.6606 -0.283997 13.4414 0.1729L4.84064 1.94363C3.04426 2.31348 1.58887 3.4977 0.827637 5.06305C2.0151 3.5053 3.89022 2.5 6.00015 2.5H16.0001C16.8813 2.5 17.7215 2.67534 18.4878 2.99302Z" fill="#2B3F6C"/>
</g>
</g>
</svg>
